<svg width="44" height="44" viewBox="0 0 44 44" fill="none" xmlns="http://www.w3.org/2000/svg">
<path d="M22 44C34.1503 44 44 34.1503 44 22C44 9.84974 34.1503 0 22 0C9.84974 0 0 9.84974 0 22C0 34.1503 9.84974 44 22 44Z" fill="#3F3F3F"/>
<path d="M35.4757 15.8107C34.533 16.2288 33.5188 16.5115 32.4552 16.6378C33.5412 15.9872 34.3745 14.9577 34.7679 13.7291C33.7518 14.3318 32.6258 14.7691 31.4285 15.0048C30.4693 13.9832 29.1026 13.3447 27.5892 13.3447C24.6856 13.3447 22.3306 15.6997 22.3306 18.6033C22.3306 19.0155 22.3772 19.4167 22.4674 19.8018C18.0971 19.5826 14.222 17.4892 11.6282 14.3067C11.1757 15.0832 10.916 15.9872 10.916 16.9507C10.916 18.7747 11.8451 20.385 13.2553 21.3278C12.3937 21.3007 11.5823 21.0642 10.8737 20.6693C10.8733 20.6917 10.8733 20.714 10.8733 20.736C10.8733 23.2839 12.6867 25.4091 15.0919 25.8918C14.6511 26.0126 14.1856 26.0766 13.7067 26.0766C13.3671 26.0766 13.0381 26.044 12.7173 25.9828C13.3863 28.0715 15.328 29.592 17.6296 29.6347C15.8296 31.0454 13.5624 31.8858 11.098 31.8858C10.6745 31.8858 10.2548 31.8611 9.84424 31.812C12.1702 33.3047 14.935 34.1749 17.9045 34.1749C27.577 34.1749 32.8666 26.162 32.8666 19.2124C32.8666 18.9845 32.8615 18.7575 32.8513 18.5324C33.8796 17.7912 34.771 16.8652 35.4757 15.8107Z" fill="#F1F2F2"/>
</svg>
