<svg width="40" height="40" viewBox="0 0 40 40" fill="none" xmlns="http://www.w3.org/2000/svg">
<circle cx="20" cy="20" r="20" fill="#3F3F3F"/>
<g clip-path="url(#clip0)">
<path d="M27.5557 22.8149C26.4537 22.8149 25.3716 22.6426 24.3462 22.3037C23.8438 22.1323 23.2261 22.2896 22.9194 22.6045L20.8955 24.1324C18.5483 22.8794 17.1025 21.4341 15.8667 19.1045L17.3496 17.1334C17.7349 16.7486 17.873 16.1866 17.7075 15.6592C17.3672 14.6285 17.1943 13.5469 17.1943 12.4444C17.1943 11.648 16.5464 11 15.75 11H12.4444C11.648 11 11 11.648 11 12.4444C11 21.5733 18.4268 29 27.5557 29C28.3521 29 29 28.352 29 27.5556V24.2593C29 23.4629 28.352 22.8149 27.5557 22.8149Z" fill="white"/>
</g>
<defs>
<clipPath id="clip0">
<rect x="11" y="11" width="18" height="18" fill="white"/>
</clipPath>
</defs>
</svg>
