<svg width="40" height="40" viewBox="0 0 40 40" fill="none" xmlns="http://www.w3.org/2000/svg">
<circle cx="20" cy="20" r="20" fill="#3F3F3F"/>
<path d="M20.4093 7.8689C15.3023 7.8689 11.1476 12.0237 11.1476 17.1306C11.1476 23.4684 19.4359 32.7726 19.7888 33.1656C20.1202 33.5348 20.6989 33.5342 21.0298 33.1656C21.3827 32.7726 29.671 23.4684 29.671 17.1306C29.6709 12.0237 25.5162 7.8689 20.4093 7.8689ZM20.4093 21.7904C17.8398 21.7904 15.7495 19.7 15.7495 17.1306C15.7495 14.5611 17.8399 12.4708 20.4093 12.4708C22.9786 12.4708 25.069 14.5612 25.069 17.1306C25.069 19.7 22.9786 21.7904 20.4093 21.7904Z" fill="white"/>
</svg>
