<svg width="40" height="40" viewBox="0 0 40 40" fill="none" xmlns="http://www.w3.org/2000/svg">
<circle cx="20" cy="20" r="20" fill="#3F3F3F"/>
<path d="M8.50099 12.4604C11.7949 15.25 17.5747 20.1577 19.2734 21.688C19.5015 21.8945 19.7461 21.9995 20 21.9995C20.2534 21.9995 20.4976 21.8955 20.7251 21.6899C22.4253 20.1582 28.2051 15.25 31.499 12.4604C31.7041 12.2871 31.7354 11.9824 31.5694 11.7705C31.1855 11.2808 30.6133 11 30 11H10C9.38674 11 8.81444 11.2808 8.43068 11.7705C8.26464 11.9824 8.29591 12.2871 8.50099 12.4604Z" fill="white"/>
<path d="M31.71 13.9722C31.5327 13.8897 31.3242 13.9184 31.1768 14.0444C27.5239 17.1411 22.8618 21.1104 21.395 22.4321C20.5717 23.1753 19.4292 23.1753 18.604 22.4311C17.0405 21.0224 11.8051 16.5717 8.82322 14.0444C8.67477 13.9184 8.4658 13.8906 8.29002 13.9721C8.1133 14.0542 8 14.2309 8 14.4258V27C8 28.103 8.89695 29 10 29H30C31.103 29 32 28.103 32 27V14.4258C32 14.2309 31.8867 14.0537 31.71 13.9722Z" fill="white"/>
</svg>
