<svg width="44" height="44" viewBox="0 0 44 44" fill="none" xmlns="http://www.w3.org/2000/svg">
<path d="M28.557 11.7062H15.443C13.3498 11.7062 11.6469 13.4092 11.6469 15.5023V28.6164C11.6469 30.7095 13.3498 32.413 15.443 32.413H28.557C30.6502 32.413 32.3537 30.71 32.3537 28.6164V15.5023C32.3537 13.4092 30.6507 11.7062 28.557 11.7062ZM22 28.8762C18.2416 28.8762 15.1837 25.8183 15.1837 22.0593C15.1837 18.3009 18.2416 15.243 22 15.243C25.7589 15.243 28.8168 18.3009 28.8168 22.0593C28.8168 25.8178 25.7584 28.8762 22 28.8762ZM29.036 16.6524C28.1462 16.6524 27.4227 15.9288 27.4227 15.0396C27.4227 14.1503 28.1462 13.4268 29.036 13.4268C29.9252 13.4268 30.6487 14.1503 30.6487 15.0396C30.6487 15.9288 29.9252 16.6524 29.036 16.6524Z" fill="white"/>
<path d="M22 18.1234C19.8303 18.1234 18.0636 19.8891 18.0636 22.0588C18.0636 24.2294 19.8303 25.9956 22 25.9956C24.1706 25.9956 25.9358 24.2294 25.9358 22.0588C25.9358 19.8896 24.1701 18.1234 22 18.1234Z" fill="white"/>
<path d="M22 0C9.85022 0 0 9.85022 0 22C0 34.1498 9.85022 44 22 44C34.1498 44 44 34.1498 44 22C44 9.85022 34.1498 0 22 0ZM35.2336 28.6163C35.2336 32.2983 32.239 35.2929 28.557 35.2929H15.443C11.7615 35.2929 8.76637 32.2983 8.76637 28.6163V15.5023C8.76637 11.8209 11.7615 8.82569 15.443 8.82569H28.557C32.239 8.82569 35.2336 11.8209 35.2336 15.5023V28.6163Z" fill="#3F3F3F"/>
</svg>
