<svg width="44" height="44" viewBox="0 0 44 44" fill="none" xmlns="http://www.w3.org/2000/svg">
<path d="M22.0055 0H21.9945C9.86425 0 0 9.867 0 22C0 26.8125 1.551 31.273 4.18825 34.8947L1.4465 43.0677L9.90275 40.3645C13.3815 42.669 17.5312 44 22.0055 44C34.1357 44 44 34.1302 44 22C44 9.86975 34.1357 0 22.0055 0Z" fill="#3F3F3F"/>
<path d="M34.8068 31.0668C34.276 32.5655 32.1695 33.8085 30.4893 34.1715C29.3398 34.4163 27.8383 34.6115 22.7838 32.516C16.3185 29.8375 12.155 23.2678 11.8305 22.8415C11.5198 22.4153 9.21802 19.3628 9.21802 16.2058C9.21802 13.0488 10.8213 11.5115 11.4675 10.8515C11.9983 10.3098 12.8755 10.0623 13.717 10.0623C13.9893 10.0623 14.234 10.076 14.454 10.087C15.1003 10.1145 15.4248 10.153 15.851 11.1733C16.3818 12.452 17.6743 15.609 17.8283 15.9335C17.985 16.258 18.1418 16.698 17.9218 17.1243C17.7155 17.5643 17.534 17.7595 17.2095 18.1335C16.885 18.5075 16.577 18.7935 16.2525 19.195C15.9555 19.5443 15.62 19.9183 15.994 20.5645C16.368 21.197 17.6605 23.3063 19.5635 25.0003C22.0193 27.1865 24.0103 27.885 24.7225 28.182C25.2533 28.402 25.8858 28.3498 26.2735 27.9373C26.7658 27.4065 27.3735 26.5265 27.9923 25.6603C28.4323 25.0388 28.9878 24.9618 29.5708 25.1818C30.1648 25.388 33.308 26.9418 33.9543 27.2635C34.6005 27.588 35.0268 27.742 35.1835 28.0143C35.3375 28.2865 35.3375 29.5653 34.8068 31.0668Z" fill="#FAFAFA"/>
</svg>
